<?xml version="1.0" encoding="utf-8"?>
<!-- Generator: Adobe Illustrator 16.0.0, SVG Export Plug-In . SVG Version: 6.00 Build 0)  -->
<!DOCTYPE svg PUBLIC "-//W3C//DTD SVG 1.1//EN" "http://www.w3.org/Graphics/SVG/1.1/DTD/svg11.dtd">
<svg version="1.1"
	 id="Layer_1" xmlns:dc="http://purl.org/dc/elements/1.1/" xmlns:cc="http://creativecommons.org/ns#" xmlns:rdf="http://www.w3.org/1999/02/22-rdf-syntax-ns#"
	 xmlns="http://www.w3.org/2000/svg" xmlns:xlink="http://www.w3.org/1999/xlink" x="0px" y="0px" width="62px" height="34px"
	 viewBox="0 0 62 34" enable-background="new 0 0 62 34" xml:space="preserve">
<path fill="#898989" d="M27.799,1c-4.405,0-7.965,3.559-7.965,7.965c0,1.816,0.605,3.487,1.624,4.826
	c2.212-2.56,5.476-4.185,9.121-4.185c1.783,0,3.473,0.397,4.997,1.093c0.124-0.558,0.188-1.138,0.188-1.733
	C35.764,4.56,32.205,1,27.799,1L27.799,1z M17.397,4.686c-2.294,0-4.138,1.86-4.138,4.154c0,0.743,0.191,1.444,0.531,2.046
	c1.384-0.781,2.985-1.234,4.685-1.234c0.164,0,0.322,0.006,0.484,0.016c-0.019-0.232-0.031-0.465-0.031-0.703
	c0-1.278,0.277-2.494,0.765-3.592C19.037,4.933,18.25,4.686,17.397,4.686L17.397,4.686z M37.045,7.543
	c-0.17,0-0.334,0.021-0.5,0.031c0.072,0.455,0.125,0.915,0.125,1.39c0,0.739-0.094,1.453-0.266,2.139
	c2.01,1.112,3.679,2.777,4.779,4.794c1.141-0.594,2.412-0.971,3.764-1.062C44.599,10.755,41.217,7.543,37.045,7.543L37.045,7.543z
	 M30.579,10.511c-6.165,0-11.15,4.986-11.15,11.151c0,6.164,4.985,11.15,11.15,11.15c6.166,0,11.151-4.986,11.151-11.15
	C41.729,15.497,36.744,10.511,30.579,10.511z M18.476,10.558c-4.783,0-8.652,3.869-8.652,8.651c0,2.816,1.341,5.309,3.42,6.888
	c0.876-1.69,2.637-2.843,4.669-2.843c0.246,0,0.481,0.03,0.719,0.063c-0.075-0.541-0.109-1.094-0.109-1.654
	c0-2.684,0.873-5.165,2.358-7.169c-0.889-1.112-1.525-2.449-1.796-3.904C18.884,10.575,18.68,10.558,18.476,10.558L18.476,10.558z
	 M45.588,15.711c-1.453,0-2.813,0.371-4.014,1c0.682,1.511,1.062,3.188,1.062,4.951c0,3.303-1.327,6.301-3.482,8.48
	C40.736,31.899,43.033,33,45.588,33c4.782,0,8.652-3.869,8.652-8.652C54.24,19.565,50.371,15.711,45.588,15.711L45.588,15.711z
	 M8.981,16.852C4.575,16.851,1,20.395,1,24.8s3.575,7.98,7.98,7.98c1.677,0,3.23-0.522,4.513-1.405
	c-0.53-0.824-0.843-1.809-0.843-2.858c0-0.544,0.08-1.067,0.234-1.562c-2.402-1.736-3.967-4.561-3.967-7.746
	c0-0.809,0.106-1.592,0.296-2.343C9.136,16.864,9.06,16.851,8.981,16.852L8.981,16.852z M55.817,23.691
	c-0.235,0-0.462,0.027-0.687,0.063c0.012,0.199,0.016,0.393,0.016,0.594c0,2.541-1.003,4.846-2.625,6.56
	c0.799,0.927,1.971,1.515,3.296,1.515c2.415,0,4.373-1.942,4.373-4.357S58.232,23.691,55.817,23.691L55.817,23.691z M17.914,24.16
	c-2.415,0-4.357,1.942-4.357,4.357s1.942,4.373,4.357,4.373c1.851,0,3.422-1.155,4.061-2.78c-1.557-1.586-2.676-3.608-3.17-5.856
	C18.515,24.194,18.221,24.16,17.914,24.16L17.914,24.16z"/>
</svg>
